<?xml version="1.0" standalone="no"?>
<!DOCTYPE svg PUBLIC "-//W3C//DTD SVG 1.1//EN" "http://www.w3.org/Graphics/SVG/1.1/DTD/svg11.dtd">
<svg xmlns="http://www.w3.org/2000/svg">
<metadata>Generated by Fontastic.me</metadata>
<defs>
<font id="auxin-elements-icon" horiz-adv-x="512">
<font-face font-family="auxin-elements-icon" units-per-em="512" ascent="480" descent="-32"/>
<missing-glyph horiz-adv-x="512" />

<glyph glyph-name="blog" unicode="&#97;" d="M240 224l0 32 272 0 0-32z m0 240l272 0 0-32-272 0z m0 48l208 0 0-32-208 0z m96-128l-96 0 0 32 96 0z m112-112l-208 0 0 32 208 0z m-112-96l-96 0 0 32 96 0z m-336-32l0 160 208 0 0-160z m176 128l-144 0 0-96 144 0z m-176 112l0 128 208 0 0-160-208 0z m32 0l144 0 0 96-144 0z"/>
<glyph glyph-name="button" unicode="&#98;" d="M0 512l0-320 154 0c1 14 9 26 22 32l-142 0 0 256 448 0 0-256-112 0c8-8 9-21 9-32l135 0 0 320z m413-227l0 64c0 3 0 5-2 6-1 2-3 2-5 2-1 0-3 0-4-2-2 0-4-1-4-1 0 0-1-2-3-4l0-67-17 0 0 85 17 0 0-10c3 2 5 5 7 5 1 2 3 2 6 3 3 2 6 2 10 2 3 0 6-2 9-3 2-3 3-7 3-10l0-72-17 0z m-72-2c-10 0-16 3-19 8-4 5-7 13-7 23l0 25c0 10 2 18 7 23 4 4 11 8 19 8 8 0 16-4 19-8 3-5 6-13 6-23l0-25c0-10-1-18-6-23-5-5-11-8-19-8z m8 56c0 2 0 3 0 3 0 2 0 2 0 4 0 1 0 3 0 3 0 0 0 1-2 3 0 2-1 2-1 2l-2 1c-2 0-2 0-3 0-2 0-2 0-3 0-2 0-2 0-2-1l-2-2c0-2 0-2-1-3 0 0 0-2 0-3 0-2 0-4 0-4 0-1 0-1 0-3l0-25c0-2 0-4 0-4 0-1 0-1 0-3 0-1 0-3 0-3 0 0 0-2 1-3 2-2 2-2 2-2l2-1c1 0 1 0 3 0 1 0 1 0 3 0 2 0 2 0 2 1l1 2c0 0 0 1 2 3 0 0 0 2 0 3 0 2 0 3 0 3 0 2 0 2 0 4z m-69-51c-3 3-5 8-5 16l0 53-8 0 0 13 8 0 0 28 18 0 0-30 13 0 0-13-13 0 0-49c0-4 0-7 1-8 2-2 4-2 7-2 1 0 3 0 6 0l0-14c-5 0-8-2-11-2-10 3-14 5-16 8z m-48 0c-3 3-5 8-5 16l0 53-8 0 0 13 8 0 0 28 18 0 0-30 13 0 0-13-13 0 0-49c0-4 0-7 1-8 2-2 4-2 7-2 1 0 3 0 6 0l0-14c-5 0-8-2-11-2-8 3-13 5-16 8z m-40 5c-2-2-3-3-3-3 0 0-2-2-3-4-2-1-4-1-5-3-2 0-3-1-5-1-2 0-3 0-6 0-4 0-7 1-10 3-2 3-3 6-3 9l0 72 17 0 0-67c0-1 0-3 2-5 2-1 3-1 5-1 1 0 1 0 3 0 2 0 2 0 3 1 2 0 2 2 2 2l1 2 2 1 0 67 18 0 0-84-18 0z m-45 25c0-11-3-19-9-25-7-7-15-10-26-10l-30 0 0 119 25 0c5 0 11 0 15-2 4-2 8-3 11-5 3-1 6-5 8-9 1-4 3-8 3-13 0-8-2-13-5-18-3-3-8-6-14-8 6-1 13-6 16-9 3-4 6-12 6-20z m-17 56c0 2 0 5-2 7 0 1-2 3-2 5-1 1-1 1-3 3-1 1-3 1-5 1-1 0-3 0-6 2-3 0-5 0-6 0-2 0-4 0-7 0l0-38 8 0c16-2 23 6 23 20z m-5-40c-3 4-8 5-16 5l-8 0 0-43 8 0c8 0 13 2 16 5 3 3 5 8 5 16 0 8-2 14-5 17z m208-254c-2-2-3-3-7-3-3 0-4 0-6 3-2 2-2 3-2 6 0 2 0 5 2 7 2 1 3 3 6 3 2 0 5-2 7-3 1-2 1-3 1-7 0-3 0-4-1-6z m16 83c-3-8-7-17-8-25-3-8-5-16-5-23l0-5-85 0 0 5c0 7-3 13-8 19-1 4-6 8-14 13-7 7-13 11-19 15-2 1-5 3-8 4-13 7-20 10-20 12 0 6 2 11 5 16 3 3 7 6 13 6 3 0 8 0 11-2 3-1 7-3 10-4 1-2 5-4 8-5 3-2 5-2 6-2l0 77c0 5 2 8 5 11 3 3 8 5 11 5 5 0 8-2 11-5 4-3 5-8 5-11l0-43c2 1 3 1 7 3 3 2 4 2 8 2 6 0 11-2 16-7 3 2 6 2 9 2 3 0 7 0 10-2 3-1 5-3 6-6 3 0 5 0 8 0 15 0 23-8 23-26-2-8-4-14-5-24z m9 55c-6 8-16 11-28 11-7 5-15 8-24 8-2 0-4 0-7 0-5 3-9 5-16 5l0 22c0 10-3 18-9 24-7 6-15 10-24 10-10 0-18-4-24-10-7-6-10-14-10-24l0-50c-5 2-11 4-18 4-11 0-19-4-25-12-7-6-8-16-8-27 0-3 1-6 1-9 2-4 4-5 7-7 3-1 6-3 8-5 1-1 6-3 9-4 4-2 7-4 8-5 5-3 12-8 18-13l2-2c1-1 1-1 3-1l3-3c2-2 2-2 3-4 0-1 2-1 2-3 0-1 1-1 1-3 0-2 0-2 0-3l0-39c0-4 2-8 5-11 3-3 8-5 11-5l85 0c5 0 8 2 13 5 3 3 5 8 5 11l0 39c0 5 3 14 8 30 6 16 9 31 9 43 4 10 0 20-8 28z"/>
<glyph glyph-name="calendar" unicode="&#99;" d="M448 448l0-304-384 0 0 304 64 0 0 64 96 0 0-64 64 0 0 64 96 0 0-64z m-128-32l32 0 0 64-32 0z m-160 0l32 0 0 64-32 0z m256-64l-320 0 0-176 320 0z m0 64l-32 0 0-32-96 0 0 32-64 0 0-32-96 0 0 32-32 0 0-48 320 0z m-272-144l32 0 0 32-32 0z m48 0l32 0 0 32-32 0z m48 0l32 0 0 32-32 0z m48 0l32 0 0 32-32 0z m48 0l32 0 0 32-32 0z m-192-48l32 0 0 32-32 0z m48 0l32 0 0 32-32 0z m48 0l32 0 0 32-32 0z"/>
<glyph glyph-name="callout" unicode="&#100;" d="M64 416l176 0 0-16-176 0z m-64-112l0 208 512 0 0-208z m480 176l-448 0 0-144 448 0z m-192-32l160 0 0-80-160 0z"/>
<glyph glyph-name="caption" unicode="&#101;" d="M80 304l0 32 352 0 0-32z m0 80l352 0 0-32-352 0z m0 48l352 0 0-32-352 0z m0 80l240 0 0-48-240 0z m128-256l-128 0 0 32 128 0z"/>
<glyph glyph-name="carousel" unicode="&#102;" d="M301 163l0 109 54-54z m-90 107l0-108-54 54z m141 82l0 160 160 0 0-160z m128 128l-96 0 0-96 96 0z m-304-96l0 128 160 0 0-160-160 0z m32 0l96 0 0 96-96 0z m-208 0l0 128 160 0 0-160-160 0z m32 0l96 0 0 96-96 0z"/>
<glyph glyph-name="chart" unicode="&#103;" d="M448 160l0-32-384 0 0 384 32 0 0-352 32 0 0 208 16 0 0-16 32 0 0 16 16 0 0-16 16 0 0-192 16 0 0 320 80 0 0-320 16 0 0 160 80 0 0-160 16 0 0 16 16 0 0-16z m-272 160l-16 0 0-160 16 0z m96 128l-16 0 0-288 16 0z m96-160l-16 0 0-128 16 0z m-240 208l16 0 0 16-16 0z m48 0l16 0 0 16-16 0z m48 0l16 0 0 16-16 0z m48 0l16 0 0 16-16 0z m48 0l16 0 0 16-16 0z m48 0l16 0 0 16-16 0z m48 0l16 0 0 16-16 0z m0-48l16 0 0 16-16 0z m-48 0l16 0 0 16-16 0z m-48 0l16 0 0 16-16 0z m0-48l16 0 0 16-16 0z m48 0l16 0 0 16-16 0z m48 0l16 0 0 16-16 0z m0-48l16 0 0 16-16 0z m-48 0l16 0 0 16-16 0z m-48 0l16 0 0 16-16 0z m96-48l16 0 0 16-16 0z m0-48l16 0 0 16-16 0z m0-48l16 0 0 16-16 0z m-240 240l16 0 0 16-16 0z m0-48l16 0 0 16-16 0z m-48 0l16 0 0 16-16 0z m0 48l16 0 0 16-16 0z"/>
<glyph glyph-name="code" unicode="&#104;" d="M246 304l0 19 79 0 0-19z m-72 32l45 32-45 32 0 26 66-45 0-26-66-45z m-110-192l0 368 384 0 0-368z m352 336l-320 0 0-304 320 0z"/>
<glyph glyph-name="column" unicode="&#105;" d="M272 192l-208 0 0 320 384 0 0-320z m-32 288l-144 0 0-256 144 0z m176 0l-144 0 0-256 144 0z"/>
<glyph glyph-name="contact-box" unicode="&#106;" d="M240 320l-112 0 0 128 112 0z m-16 112l-80 0 0-88c0 6 3 13 11 18 8 4 18 6 29 6 11 0 21-2 29-6 8-5 11-10 11-18z m-40-16c6 0 13-2 18-6 4-5 6-10 6-18 0-6-2-13-6-18-5-4-10-6-18-6-6 0-13 2-18 6-4 5-6 10-6 18 0 6 2 13 6 18 5 4 12 6 18 6z m254 88c7-6 10-13 10-22l0-192c0-10-3-18-10-24-6-7-14-10-22-10l-320 0c-8 0-16 3-22 10-7 6-10 14-10 24l0 192c0 8 3 16 10 22 6 6 12 10 22 10l320 0c8-2 16-5 22-10z m-22-24l-320 0 0-192 320 0z m-144-64l112 0 0 32-112 0z m0-32l112 0 0 16-112 0z m0-32l112 0 0 16-112 0z m0-32l48 0 0 16-48 0z m64 0l16 0 0 16-16 0z"/>
<glyph glyph-name="contact-form" unicode="&#107;" d="M280 400l-96 0 0 32 96 0z m48-32l-144 0 0 16 144 0z m0-32l-144 0 0 16 144 0z m96 16l0-208-336 0 0 208 32-16 0 178 272 0 0-176z m-272-34l104-52 72 38-144 0 0 16 144 0 0-16 32 18 0 158-208 0z m203-142l-235 125 0-125z m37 125l-102-55 102-54z"/>
<glyph glyph-name="dropcap" unicode="&#108;" d="M56 512l400 0 0-400-400 0z m200-141l18-105-36 0z m-35-192l13 61 43 0 13-61 35 0-53 245-35 0-53-245z"/>
<glyph glyph-name="faq" unicode="&#109;" d="M256 506c-137 0-250-113-250-250 0-137 113-250 250-250 137 0 250 113 250 250 0 137-113 250-250 250z m0-459c-115 0-209 94-209 209 0 115 94 209 209 209 115 0 209-94 209-209 0-115-94-209-209-209z m-35 105l45 0 0-46-45 0z m33 243c-25 0-45-6-57-20-15-15-21-33-21-60l0-10 45 0c0 14 2 27 8 33 4 8 15 12 27 12 23 0 33-10 33-33 0-8-2-16-4-24-2-8-6-14-11-21-4-6-10-12-16-18-6-6-12-10-18-14-7-4-13-9-19-13l0-55 45 0 0 45c21 10 37 23 49 39 13 16 19 37 19 61 0 25-6 45-21 58-14 14-32 20-59 20z"/>
<glyph glyph-name="gallery" unicode="&#110;" d="M400 512l0-288-384 0 0 288z m-32-32l-320 0 0-224 320 0z m-142-109c-7 7-10 15-10 23 0 9 3 16 10 22 6 6 14 10 22 10 10 0 16-4 22-10 7-6 10-14 10-22 0-8-3-16-10-23-6-6-14-9-22-9-10 0-16 3-22 9z m6 7l32 0 0 32-32 0z m120-106l-288 0 0 192 288 0z m-272 35l96 18-96 27z m256 29l-256-45 0-3 256 0z m0 112l-256 0 0-80 128-40 128 24z m-208-320l0 32 336 0 0 256 32 0 0-288z m288 48l-352 0 0 32 352 0 0 256 32 0 0-288z"/>
<glyph glyph-name="google-maps" unicode="&#111;" d="M440 434l0-293-125 69-109-64-134 73 0 293 131-74 115 64z m-32-20l-80 44 0-101 80-42z m-192-104l80 47 0 99-80-45z m0-118l80 46 0 101-80-46z m-112 264l0-96 80-48 0 101z m0-219l80-47 0 101-80 48z m304-42l0 103-80 41 0-101z"/>
<glyph glyph-name="image" unicode="&#112;" d="M448 512l0-288-384 0 0 288z m-32-32l-320 0 0-224 320 0z m-142-109c-7 7-10 15-10 23 0 9 3 16 10 22 6 6 14 10 22 10 10 0 16-4 22-10 7-6 10-14 10-22 0-8-3-16-10-23-6-6-14-9-22-9-10 0-16 3-22 9z m6 7l32 0 0 32-32 0z m120-106l-288 0 0 192 288 0z m-272 35l96 18-96 27z m256 29l-256-45 0-3 256 0z m0 112l-256 0 0-80 128-40 128 24z"/>
<glyph glyph-name="link" unicode="&#113;" d="M418 482c19-21 30-42 30-66 0-24-10-46-30-66-21-19-42-30-66-30l-72 0c-24 0-46 10-66 30-20 21-30 42-30 66 0 5 2 13 3 24l51 0c-4-8-6-16-6-24 0-13 5-22 14-34 10-9 21-14 34-14l72 0c11 0 22 5 32 14 10 10 16 21 16 34 0 13-5 22-14 34-10 9-21 14-34 14l-11 0c-7 19-21 35-40 48l51 0c24 0 46-10 66-30z m-207-162l-51 0c-24 0-46 10-66 30-20 21-30 42-30 66 0 24 10 46 30 66 20 20 42 30 66 30l72 0c24 0 46-10 66-30 19-21 30-42 30-66 0-10-2-18-3-24l-51 0c4 8 6 16 6 24 0 13-5 22-16 34-10 9-21 14-32 14l-72 0c-13 0-22-5-34-14-9-10-14-21-14-34 0-13 5-22 14-34 10-9 21-14 34-14l11 0c8-19 21-35 40-48z"/>
<glyph glyph-name="list" unicode="&#114;" d="M176 272l0 48 256 0 0-48z m0 144l256 0 0-48-256 0z m0 96l256 0 0-48-256 0z m-96-192l48 0 0-48-48 0z m0 96l48 0 0-48-48 0z m0 96l48 0 0-48-48 0z"/>
<glyph glyph-name="message-box" unicode="&#115;" d="M448 512l0-352-384 0 0 352z m-32-112l-320 0 0-208 320 0z m0 80l-320 0 0-64 320 0z m-176-48l-32 0 0 32 32 0z m-48 0l-32 0 0 32 32 0z m-48 0l-32 0 0 32 32 0z m42-168l40 38-40 40 24 23 38-40 40 40 22-23-38-40 38-38-22-24-40 40-38-40z"/>
<glyph glyph-name="news" unicode="&#116;" d="M160 368l192 0 0-96-192 0z m16-80l160 0 0 64-160 0z m-16 96l192 0 0 16-192 0z m0-144l80 0 0 16-80 0z m0-32l48 0 0 16-48 0z m64-2l16 0 0 16-16 0z m46 34l80 0 0 16-80 0z m0-32l80 0 0 16-80 0z m144 256l0-320-280 0c-12 0-22 5-30 13-6 8-11 21-11 33l0 272c0 15 3 26 11 36 6 9 18 14 30 14l192 0c20 0 32-3 42-10 10-6 14-14 14-24l0-14z m-30-32l-224 0 0 32 192 0 0 16-214 0c-7 0-10-6-10-18l0-272c0-9 3-14 10-14l248 0 0 256z"/>
<glyph glyph-name="partners" unicode="&#117;" d="M309 200l-51 82 27 17 51-81z m-50-11l-43 67 27 18 43-68z m-57 1l-26 40 27 18 26-40z m230 50l0 208 80 0 0-208z m48 176l-16 0 0-144 16 0z m-480-144l0 176 80 0 0-208-80 0z m48 0l0 144-16 0 0-144z m224 160l101-158 27 14 32 0 0-32-32 0-16-8 0-24-192-48-80 80-32 0 0 32 32 0 80-80 174 43-94 149-64-32-32 32 0 32 19 16-19 0-64-48-32 0 0 32 32 0 64 48 58 0 38 32 32 0 96-80 32 0 0-32-32 0-96 80-32 0-32-27 0-5-6 0-40-34 14-14z"/>
<glyph glyph-name="portfolio" unicode="&#118;" d="M432 464l0-304-352 0 0 256 16 0 0 48 64 0 0 16c0 10 3 16 10 22 6 7 14 10 22 10l64 0c10 0 16-3 22-10 7-6 10-14 10-22l0-16z m-32-80l-288 0 0-192 288 0z m0 48l-144 0 0 48-64 0 0-48-64 0 0-16 272 0z"/>
<glyph glyph-name="price-table" unicode="&#119;" d="M262 280l0 14c12 0 20 5 26 12 6 6 11 14 11 24 0 4 0 8-1 12-2 4-2 7-4 10-1 3-3 5-6 8-3 3-5 5-8 8-3 2-6 5-10 8l-11 8c-5 3-8 6-9 10-2 3-4 6-4 11 0 3 2 5 4 8 1 1 4 3 8 3 6 0 9-5 9-14 0-2 0-4 0-7l32 5 0 3c0 10-3 18-11 26-6 6-16 9-26 11l0 16-8 0 0-18c-11-1-20-4-27-11-6-6-9-16-9-27 0-3 0-8 1-11 2-3 2-7 3-8 2-3 4-5 7-8 3-3 5-5 6-7 2-1 5-3 8-6l10-8c0 0 1-2 3-3 2-2 3-3 3-3 0 0 2-2 3-4 2-1 4-1 4-3 0-1 1-1 1-3 0-2 2-3 2-3 0-2 0-3 0-5 0-6-3-11-10-11-1 0-3 0-5 1-1 2-3 2-3 4 0 1-1 3-1 4 0 2 0 4-2 5 0 2 0 3 0 5l0 5-32-7c0-6 0-11 2-16 1-4 3-9 6-12 3-4 6-7 11-10 5-3 11-3 18-5l0-14 9 0z m-54-24l96 0 0-32-96 0z m32 16l0 32 32 0 0-32z m0 192l32 0 0-32-32 0z m144-272l0-32-256 0 0 32-112 0 0 288 112 0 0 32 256 0 0-32 112 0 0-288z m-336 256l0-224 80 0 0 224z m304-224l0 256-192 0 0-288 192 0z m112 224l-80 0 0-224 80 0z"/>
<glyph glyph-name="quote" unicode="&#120;" d="M130 454c8 16 17 28 27 34 9 6 21 13 33 16 13 3 23 6 28 6 4 0 9 2 11 2l0-56c-11 0-19-2-27-6-8-5-13-8-16-13-4-5-7-11-8-18-2-6-4-11-4-13 0-1 0-4 0-6l56 0 0-112-112 0 0 112c-1 21 4 40 12 54z m240-4c-8-5-13-8-16-13-4-5-7-11-8-18-2-6-4-11-4-13 0-1 0-4 0-6l56 0 0-112-112 0 0 112c0 21 5 40 13 54 8 16 18 28 27 34 10 6 21 13 34 16 13 3 22 6 27 6 5 0 10 2 11 2l0-56c-12 0-20-2-28-6z"/>
<glyph glyph-name="services" unicode="&#121;" d="M48 336l0 16 48 0 0-16z m-48 48l96 0 0-16-96 0z m0 32l96 0 0-16-96 0z m48 32l48 0 0-16-48 0z m64-144l0 208 256 0 0-208z m224 176l-192 0 0-144 192 0z m176-128l0-80c0-11 0-32 0-32 0 0-37 0-48 0l-11-5c-3-11-8-19-18-27-9-6-19-11-30-11-11 0-23 3-31 11-9 6-14 16-17 27l-66 0c-3-11-8-19-17-27-10-6-20-11-31-11-11 0-22 3-30 11-10 6-15 16-18 27l-14 0c-11 0-35 5-35 5l0 96 192 0-2 125 82 0 32-16z m-245-104c0 8-1 13-6 18-5 4-11 6-18 6-6 0-13-2-17-6-5-5-7-12-7-18 0-6 2-13 7-18 4-4 11-6 17-6 7 0 13 2 18 6 5 5 6 12 6 18z m162 0c0 8-2 13-7 18-4 4-11 6-17 6-8 0-13-2-18-6-5-5-6-12-6-18 0-6 1-13 6-18 5-4 11-6 18-6 8 0 13 2 17 6 5 5 7 12 7 18z m49 101l-62 83-48 0 0-128-192 0-10-30c0-8 5-13 13-13l15 0c3 11 8 19 17 27 10 6 19 11 31 11 11 0 22-3 30-11 10-6 14-16 18-27l65 0c3 11 8 19 18 27 9 6 19 11 30 11 11 0 23-3 31-11 9-6 14-16 17-27l11 11 16 0z"/>
<glyph glyph-name="sound-cloud" unicode="&#122;" d="M24 398l0-84c-13 11-19 25-19 43 0 16 6 30 19 41z m38 15l5 0 0-112-5 0c-8 0-12 0-16 1l0 108c7 1 12 3 16 3z m47 27l0-141-21 0 0 106c2-2 3-2 5-2 1 15 6 26 16 37z m43 30l0-171-22 0 0 160c8 7 14 10 22 11z m27 5c7 0 10 0 13-1l0-175-21 0 0 175 8 0z m56 0l0-174-32 0 0 171c7-2 15-5 23-8 4 5 8 10 9 11z m11 11c20 18 44 26 71 26 27 0 51-10 72-27 21-18 32-42 35-67 8 3 16 4 24 4 16 0 30-6 42-17 11-13 17-27 17-43 0-39-21-60-61-61l-200 0z"/>
<glyph glyph-name="staff" unicode="&#65;" d="M448 194l-16-7c-2-1-10-5-21-8-13-5-30-8-56-13-25-4-49-6-73-6-24 0-50 2-76 6-25 5-43 8-56 13-12 5-19 7-20 8l-16 7 6 14c3 6 5 13 10 18-31 6-47 11-48 14l-16 6 6 15c19 43 53 72 102 85-22 19-33 51-33 94 0 24 8 43 24 54 16 13 32 18 51 18 19 0 37-6 51-19 7 1 13 1 16 1 19 0 39-6 56-19 18-13 27-33 27-62 0-50-12-85-38-106 24-8 46-21 67-37 23-16 39-36 48-60z m-123 246c-5 8-10 13-16 14-7 4-11 5-16 7-5 1-8 1-11 1-4 0-8 0-12-1-4-2-9-3-16-7-6-3-11-8-16-14-4-8-6-16-6-27 0-27 5-50 13-66 8-16 21-24 37-24 16 0 27 8 36 24 10 16 13 39 13 66 0 11-3 19-6 27z m-122 38c-3 0-8-1-13-4-4-2-9-7-12-13-4-7-5-15-5-23 0-43 11-67 32-73-3 13-5 29-5 48 0 29 10 49 30 64-4 1-9 3-14 3-6 0-10 0-13-2z m-11-160c-10-1-22-6-40-16-18-9-32-22-43-38 16-5 32-8 51-11 24 22 53 38 90 46-10 5-18 11-24 19-5 2-10 2-12 2-6 0-14-2-22-2z m211-107c-11 18-25 32-43 47-19 12-35 20-51 25-15 3-24 3-29 3l-18-1c-11-2-25-5-44-13-20-8-34-18-48-30-12-13-18-23-21-31 41-13 85-19 129-19 44 0 84 6 125 19z"/>
<glyph glyph-name="tab" unicode="&#66;" d="M256 512l192 0 0-128-192 0z m-192-368l0 368 384 0 0-368z m352 336l-320 0 0-304 320 0z"/>
<glyph glyph-name="testimonial" unicode="&#67;" d="M426 498c9-10 14-21 14-34l0-176c0-13-5-24-14-34-10-9-21-14-34-14l-128 0-144-96 0 96c-11 0-22 2-32 6-10 5-16 13-16 26l0 192c0 13 5 24 14 34 10 9 21 14 34 14l272 0c13 0 24-5 34-14z m-18-34c0 5-2 8-5 11-3 3-6 5-11 5l-272 0c-5 0-8-2-11-5-3-3-5-6-5-11l0-176c0-5 2-8 5-11 3-3 6-5 11-5l32 0 0-80 96 80 144 0c5 0 8 2 11 5 3 3 5 6 5 11z m-272-64l192 0 0 32-192 0z m0-32l240 0 0 16-240 0z m0-32l240 0 0 16-240 0z m0-32l128 0 0 16-128 0z"/>
<glyph glyph-name="video" unicode="&#68;" d="M376 336l0 80 96 64 0-208z m64 75l-32-21 0-27 32-21z m-400-139l0 240 320 0 0-272-320 0z m32 0l256 0 0 208-256 0z"/>
<glyph glyph-name="accordion" unicode="&#69;" d="M0 48l0 192 32 0 0 112-32 0 0 112 512 0 0-112-32 0 0-112 32 0 0-192z m480 384l-448 0 0-48 448 0z m-32-80l-384 0 0-112 384 0z m32-144l-448 0 0-48 448 0z m0-80l-448 0 0-48 448 0z"/>
<glyph glyph-name="divider" unicode="&#70;" d="M400 160l0 32 32 0 0-32z m-320 192l352 0 0-32-352 0z m48-192l-48 0 0 32 48 0z m80 32l0-32-48 0 0 32z m80 0l0-32-48 0 0 32z m80 0l0-32-48 0 0 32z"/>
<glyph glyph-name="post-slider" unicode="&#71;" d="M0 64l0 32 480 0 0 320 32 0 0-352z m381 254l54-54-54-54z m-304-54l54 54 0-108z m-45-168l-32 0 0 352 512 0 0-32-480 0z"/>
<glyph glyph-name="text" unicode="&#72;" d="M0 288l0 32 512 0 0-32z m0 128l448 0 0-48-448 0z m400-192l-400 0 0 32 400 0z m48-64l-448 0 0 32 448 0z m-208-64l-240 0 0 32 240 0z"/>
<glyph glyph-name="socials" unicode="&#73;" d="M473 227c10 15 15 31 15 48 0 20-8 41-22 53-15 15-34 22-56 22l-53 0c10 17 15 39 15 58 0 19-3 39-10 55-7 15-17 25-31 32-15 10-32 12-46 12-10 0-19-5-27-12-9-7-16-19-19-32-5-12-7-26-10-38 0-10-4-17-9-27-10-9-22-24-32-38-14-17-26-32-43-46l-82 0c-10 0-19-5-27-12-7-7-12-17-12-27l0-193c0-21 17-38 39-38l87 0c14-3 29-8 41-12 24-8 46-15 65-20 19-5 39-7 58-7l39 0c24 0 48 7 67 24 17 17 27 41 27 68 12 14 16 34 16 53 0 5 0 9 0 12 8 14 13 29 13 43 0 8-3 15-3 22z m-376-137c-5-5-10-8-15-8-5 0-9 3-14 5-7 7-7 19 0 27 5 4 9 7 14 7 5 0 10-3 15-5 7-7 7-19 0-26z m345 161c-3-7-10-12-17-14 5-5 7-10 7-15 3-5 3-12 3-17 0-14-5-26-15-36 2-7 5-14 5-19 0-7-3-15-5-22-2-7-7-12-14-17 0-5 0-12 0-17 0-33-20-50-58-50l-34 0c-36 2-70 9-104 21-2 3-5 3-9 3-5 0-8 2-10 5-3 2-7 2-10 4-5 0-7 3-12 3-2 0-7 2-10 2-4 0-7 0-9 0l-10 0 0 193 10 0c5 0 7 0 9 3 5 2 10 5 13 9l12 10c4 5 9 10 12 14 5 5 7 10 9 13 3 2 5 7 10 12l7 9c10 15 20 22 24 27 10 9 15 22 17 34 3 14 7 26 10 38 2 10 5 19 12 27 14 2 29-3 39-15 7-14 9-29 9-43 0-17-5-34-14-48-8-15-12-32-15-49l106 0c10 0 20-5 27-12 7-7 12-17 12-26 0-10-2-20-7-27z"/>
<glyph glyph-name="search" unicode="&#74;" d="M500 67l-105 106c26 35 38 79 38 122 0 30-6 59-18 85-8 27-26 50-46 71-18 17-41 32-68 43-26 12-55 18-84 18-30 0-59-6-85-18-27-8-50-26-68-46-41-41-64-94-64-153 0-29 6-58 18-84 11-27 26-50 46-71 21-20 44-35 71-46 67-30 146-21 207 20l106-105c5-9 17-12 26-12 12 0 20 3 29 12 9 6 12 17 12 26-3 15-6 24-15 32z m-187 129c-26-26-61-41-96-41-39-3-74 12-97 41-26 26-41 61-41 99 0 39 15 74 41 97 26 26 61 41 97 41 38 0 73-15 96-41 26-26 41-61 41-97 0-38-15-73-41-99z"/>
</font>
</defs>
</svg>
