<svg xmlns="http://www.w3.org/2000/svg" width="47" height="38" viewBox="0 0 47 38">
  <defs>
    <style>
      .cls-1 {
        fill: #d8d8d8;
        fill-rule: evenodd;
      }
    </style>
  </defs>
  <path id="stroke_copy_3" data-name="stroke copy 3" class="cls-1" d="M43,22H41V1h0V0h2V22ZM41,1L24.421,10,23.5,9.5,41,0h0V1ZM6,1V0H6L23.5,9.5l-0.921.5ZM6,1V19l16.579-9L23.5,10.5,6,20H6v2H4V0H6V1H6Zm18.421,9L41,19v1h0L23.5,10.5ZM41,20v2H6V20H41Zm2,7H4V25H43v2Zm0,4H4V29H43v2ZM32,35H4V33H32v2ZM-2-2H49V40H-2V-2ZM0,0H47V38H0V0Z"/>
</svg>
