<svg xmlns="http://www.w3.org/2000/svg" width="47" height="38" viewBox="0 0 47 38">
  <defs>
    <style>
      .cls-1 {
        fill: #cdcdcd;
        fill-rule: evenodd;
      }
    </style>
  </defs>
  <path class="cls-1" d="M11.495,5.709h1.745V4.575H8.388V5.709h1.745V11h1.362V5.709Zm7.638-1.134H17.775V7.093H15.23V4.575H13.868V11H15.23V8.227h2.544V11h1.358V4.575Zm4.962,5.3H21.757V8.218h2.175V7.1H21.757V5.691h2.338V4.575h-3.7V11h3.7V9.875ZM29.043,11L30.7,5.968h0.04q-0.053,1.213-.059,1.494t-0.007.5V11h1.27V4.575H30.089L28.476,9.488H28.45l-1.52-4.913H25.075V11h1.217V8.012q0-.514-0.084-2.052h0.04L27.8,11h1.248ZM36.9,9.875H34.563V8.218h2.175V7.1H34.563V5.691H36.9V4.575H33.2V11h3.7V9.875ZM9.194,15.406a3.4,3.4,0,0,0-2.443-.831H4.733V21H6.553a3.683,3.683,0,0,0,2.608-.844,3.164,3.164,0,0,0,.9-2.43A3.055,3.055,0,0,0,9.194,15.406ZM6.68,19.875H6.1V15.691H6.821q1.828,0,1.828,2.07A1.807,1.807,0,0,1,6.68,19.875h0Zm8.056,0H12.4V18.218h2.175V17.1H12.4V15.691h2.338V14.575h-3.7V21h3.7V19.875Zm2.321-1.415h2.18V17.348h-2.18V15.691H19.4V14.575H15.716V21h1.34V18.46ZM25.7,21L23.42,14.549H21.755L19.487,21h1.468l0.466-1.529h2.342L24.229,21H25.7Zm-3.933-2.672q0.686-2.219.831-2.782,0.035,0.158.116,0.431t0.727,2.351H21.763Zm8.253-3.753V18.5a1.656,1.656,0,0,1-.3,1.1,1.214,1.214,0,0,1-.969.349,1.242,1.242,0,0,1-.989-0.347,1.647,1.647,0,0,1-.3-1.09V14.575H26.1v4.14a2.252,2.252,0,0,0,.686,1.738,2.726,2.726,0,0,0,1.925.635,3.292,3.292,0,0,0,1.424-.286,2.074,2.074,0,0,0,.921-0.822,2.4,2.4,0,0,0,.319-1.248V14.575H30.017ZM36.556,21V19.875H33.95v-5.3H32.588V21h3.968Zm3.235-5.291h1.745V14.575H36.684v1.134h1.745V21h1.362V15.709ZM-2-2H49V40H-2V-2ZM0,0H47V38H0V0Zm28.754,29.32L23.7,34.371h0l-1.444,1.444L18.643,32.2l1.444-1.444,2.166,2.166,5.055-5.056ZM0,25H47V38H0V25Z"/>
</svg>
