<svg xmlns="http://www.w3.org/2000/svg" width="47" height="38" viewBox="0 0 47 38">
  <defs>
    <style>
      .cls-1 {
        fill: #cdcdcd;
        fill-rule: evenodd;
      }
    </style>
  </defs>
  <path id="full" class="cls-1" d="M0,0H47V38H0V0ZM45.744,18.976L42.3,15.84a0.249,0.249,0,0,0-.3-0.048,0.278,0.278,0,0,0-.176.272v2H30.688a0.281,0.281,0,0,0-.208.08,0.262,0.262,0,0,0-.08.192v1.728a0.261,0.261,0,0,0,.08.192,0.28,0.28,0,0,0,.208.08H41.824v2a0.263,0.263,0,0,0,.168.264,0.275,0.275,0,0,0,.312-0.056l3.44-3.152a0.339,0.339,0,0,0,.08-0.224,0.263,0.263,0,0,0-.08-0.192h0ZM16.32,18.144a0.282,0.282,0,0,0-.208-0.08H4.976v-2A0.263,0.263,0,0,0,4.808,15.8a0.275,0.275,0,0,0-.312.056l-3.44,3.152a0.328,0.328,0,0,0-.08.216,0.271,0.271,0,0,0,.08.2L4.5,22.56a0.248,0.248,0,0,0,.3.048,0.278,0.278,0,0,0,.176-0.272v-2H16.112a0.281,0.281,0,0,0,.208-0.08,0.262,0.262,0,0,0,.08-0.192V18.336A0.263,0.263,0,0,0,16.32,18.144Z"/>
</svg>
