<?xml version="1.0" encoding="utf-8"?>
<!-- Generator: Adobe Illustrator 18.0.0, SVG Export Plug-In . SVG Version: 6.00 Build 0)  -->
<!DOCTYPE svg PUBLIC "-//W3C//DTD SVG 1.1//EN" "http://www.w3.org/Graphics/SVG/1.1/DTD/svg11.dtd">
<svg version="1.1" id="Layer_1" xmlns="http://www.w3.org/2000/svg" xmlns:xlink="http://www.w3.org/1999/xlink" x="0px" y="0px"
	 width="47px" height="38px" viewBox="0 0 47 38" enable-background="new 0 0 47 38" xml:space="preserve">
<g id="right-sidebarsvg">
	<path id="path-1" fill="#CDCDCD" d="M31,38V0h16v38H31z M45,3H35v2h10V3z M45,7H35v2h10V7z M45,11H35v2h10V11z M45,15h-6v2h6V15z
		 M45,21H35v2h10V21z M45,25H35v2h10V25z M45,29H35v2h10V29z M45,33h-3v2h3V33z M4,29h23v1H4V29z M4,25h23v1H4V25z M4,21h23v1H4V21z
		 M4,17v-1h11v1H4z M4,12h23v1H4V12z M4,8h23v1H4V8z M4,4h23v1H4V4z M10,34H4v-1h6V34z"/>
</g>
</svg>
