<svg xmlns="http://www.w3.org/2000/svg" width="47" height="38" viewBox="0 0 47 38">
  <defs>
    <style>
      .cls-1 {
        fill: #cdcdcd;
        fill-rule: evenodd;
      }
    </style>
  </defs>
  <path id="sidebar-left-left" class="cls-1" d="M-2,40V-2H49V40H-2ZM47,0H0V38H47V0ZM43,5H28V4H43V5Zm0,4H28V8H43V9Zm0,4H28V12H43v1Zm-4,3v1H28V16H39Zm4,6H28V21H43v1Zm0,4H28V25H43v1Zm0,4H28V29H43v1Zm-9,4H28V33h6v1ZM11,0V38H0V0H11ZM2,35H6V33H2v2Zm0-4H9V29H2v2Zm0-4H9V25H2v2Zm0-4H9V21H2v2Zm0-6H9V15H2v2Zm0-4H9V11H2v2ZM2,9H9V7H2V9ZM2,5H9V3H2V5ZM24,0V38H13V0H24ZM15,35h4V33H15v2Zm0-4h7V29H15v2Zm0-4h7V25H15v2Zm0-4h7V21H15v2Zm0-6h7V15H15v2Zm0-4h7V11H15v2Zm0-4h7V7H15V9Zm0-4h7V3H15V5Z"/>
</svg>
