<?xml version="1.0" encoding="utf-8"?>
<!-- Generator: Adobe Illustrator 18.0.0, SVG Export Plug-In . SVG Version: 6.00 Build 0)  -->
<!DOCTYPE svg PUBLIC "-//W3C//DTD SVG 1.1//EN" "http://www.w3.org/Graphics/SVG/1.1/DTD/svg11.dtd">
<svg version="1.1" id="Layer_1" xmlns="http://www.w3.org/2000/svg" xmlns:xlink="http://www.w3.org/1999/xlink" x="0px" y="0px"
	 width="47px" height="38px" viewBox="0 0 47 38" enable-background="new 0 0 47 38" xml:space="preserve">
<g id="left-sidebarsvg">
	<path id="path-1" fill="#CDCDCD" d="M20,30v-1h23v1H20z M20,25h23v1H20V25z M20,21h23v1H20V21z M20,17v-1h11v1H20z M20,12h23v1H20
		V12z M20,8h23v1H20V8z M20,4h23v1H20V4z M0,0h16v38H0V0z M2,35h3v-2H2V35z M2,31h10v-2H2V31z M2,27h10v-2H2V27z M2,23h10v-2H2V23z
		 M2,17h6v-2H2V17z M2,13h10v-2H2V13z M2,9h10V7H2V9z M2,5h10V3H2V5z M26,34h-6v-1h6V34z"/>
</g>
</svg>
