<svg xmlns="http://www.w3.org/2000/svg" width="47" height="38" viewBox="0 0 47 38">
  <defs>
    <style>
      .cls-1 {
        fill: #cdcdcd;
        fill-rule: evenodd;
      }
    </style>
  </defs>
  <path id="sidebar-left-right" class="cls-1" d="M-2-2H49V40H-2V-2ZM0,0H47V38H0V0ZM0,0H11V38H0V0ZM2,31V29H9v2H2Zm0-6H9v2H2V25Zm0-4H9v2H2V21ZM2,11H9v2H2V11ZM2,7H9V9H2V7ZM2,3H9V5H2V3ZM9,17H2V15H9v2ZM6,35H2V33H6v2ZM36,0H47V38H36V0Zm2,31V29h7v2H38Zm0-6h7v2H38V25Zm0-4h7v2H38V21Zm0-10h7v2H38V11Zm0-4h7V9H38V7Zm0-4h7V5H38V3Zm7,14H38V15h7v2ZM42,35H38V33h4v2ZM16,30V29H31v1H16Zm0-5H31v1H16V25Zm0-4H31v1H16V21Zm0-9H31v1H16V12Zm0-4H31V9H16V8Zm0-4H31V5H16V4Zm0,12H27v1H16V16Zm0,17h6v1H16V33Z"/>
</svg>
